<?xml version="1.0" standalone="no"?>
<!DOCTYPE svg PUBLIC "-//W3C//DTD SVG 20010904//EN"
 "http://www.w3.org/TR/2001/REC-SVG-20010904/DTD/svg10.dtd">
<svg version="1.0" xmlns="http://www.w3.org/2000/svg"
 width="602.000000pt" height="602.000000pt" viewBox="0 0 602.000000 602.000000"
 preserveAspectRatio="xMidYMid meet">
<metadata>
Created by potrace 1.14, written by Peter Selinger 2001-2017
</metadata>
<g transform="translate(0.000000,602.000000) scale(0.100000,-0.100000)"
fill="#000000" stroke="none">
<path d="M3083 5686 c-17 -6 -35 -15 -39 -19 -5 -4 0 -5 10 -1 11 4 21 2 27
-7 13 -21 12 -24 -26 -42 -41 -19 -49 -21 -40 -8 7 12 -121 1 -141 -12 -17
-10 -94 -16 -99 -7 -3 5 -13 7 -23 6 -9 -2 -42 -7 -72 -11 -30 -4 -75 -16 -99
-26 -24 -10 -50 -19 -58 -19 -8 0 -12 -4 -9 -8 3 -5 -21 -17 -52 -27 -31 -10
-61 -22 -67 -26 -5 -3 -26 -12 -47 -18 -20 -7 -48 -23 -62 -37 -15 -15 -30
-23 -37 -18 -7 4 -9 3 -6 -4 4 -6 -15 -24 -43 -41 -31 -19 -48 -36 -44 -43 4
-6 3 -8 -4 -5 -5 4 -29 -17 -52 -45 -23 -29 -60 -73 -84 -98 -52 -56 -137
-176 -130 -183 3 -3 -6 -29 -20 -57 -29 -57 -33 -86 -13 -93 10 -4 10 -7 0
-18 -7 -7 -13 -27 -13 -45 0 -17 -7 -51 -16 -75 -11 -32 -14 -63 -9 -114 3
-38 8 -117 10 -173 4 -102 56 -456 76 -518 5 -18 12 -49 14 -70 2 -22 9 -57
15 -79 13 -55 12 -151 -2 -175 -10 -16 -9 -23 8 -42 22 -25 44 -106 44 -166 1
-30 3 -34 11 -19 7 12 6 35 -1 75 -14 70 -10 137 19 342 16 111 27 163 41 182
12 16 17 34 13 44 -4 12 -3 15 5 10 7 -4 12 -1 12 9 0 9 16 36 35 59 19 24 35
49 35 56 0 7 13 28 30 46 17 20 27 40 24 49 -4 11 -2 13 9 10 9 -4 17 2 21 17
5 18 8 20 15 9 7 -11 9 -11 14 0 4 10 6 10 6 2 1 -16 28 -17 33 -3 2 6 13 12
26 13 26 2 26 -1 7 43 -14 35 -11 84 5 84 4 0 10 -7 14 -15 8 -21 26 -19 26 3
1 14 3 12 13 -6 18 -31 26 -19 20 31 -3 32 -2 38 6 27 8 -12 11 -5 11 30 0 34
3 41 11 30 8 -12 10 -8 8 15 -2 53 -1 57 20 46 21 -12 46 -97 42 -145 -1 -17
2 -27 6 -23 4 4 13 -5 20 -20 l13 -28 -5 30 c-12 74 -17 215 -9 215 6 0 9 17
7 38 -2 22 0 30 4 21 5 -10 19 -15 36 -15 18 1 27 -3 27 -14 1 -8 9 -31 20
-50 16 -30 20 -32 25 -17 4 10 5 37 2 60 -4 27 -1 48 8 60 11 16 15 11 33 -50
12 -37 26 -90 32 -118 16 -67 20 -79 25 -74 2 3 -2 32 -9 64 -23 104 -26 126
-16 120 6 -3 10 -15 10 -26 0 -11 5 -17 10 -14 6 3 10 26 10 50 0 48 8 75 21
75 5 0 9 -8 10 -17 0 -12 2 -14 6 -5 6 17 30 -33 63 -133 19 -58 47 -102 57
-91 2 1 -9 42 -23 90 -14 48 -23 90 -20 93 9 9 52 -34 87 -86 16 -24 29 -38
29 -30 0 17 -50 99 -86 142 -13 16 -24 34 -24 40 0 7 7 4 14 -6 13 -17 14 -17
20 0 6 15 8 15 16 3 6 -9 10 -10 10 -3 0 9 8 9 29 2 38 -13 81 -107 91 -201 4
-38 10 -71 13 -74 2 -3 8 26 11 63 13 127 18 156 27 142 5 -8 9 -9 9 -3 0 5
19 18 42 29 39 17 42 17 54 1 7 -10 15 -41 19 -69 8 -61 24 -97 25 -57 1 41
20 2 20 -41 0 -20 3 -38 6 -42 9 -9 64 43 75 71 5 13 14 20 19 17 11 -7 33 12
43 35 3 9 6 4 6 -12 1 -30 21 -40 21 -11 0 13 3 14 11 6 9 -9 9 -29 3 -70 -5
-32 -7 -71 -4 -87 5 -27 6 -26 18 20 7 27 17 66 23 87 5 20 16 37 24 37 14 0
19 -12 30 -72 4 -29 11 -38 25 -38 11 0 21 6 21 13 1 6 7 -13 14 -43 l12 -55
10 35 c8 26 11 29 12 13 1 -13 6 -23 11 -23 6 0 10 -18 10 -39 0 -41 23 -63
35 -33 5 14 7 14 15 2 8 -12 10 -10 10 8 0 13 4 21 9 17 5 -3 12 3 16 14 7 24
39 17 52 -12 14 -30 33 -112 33 -142 0 -14 4 -25 8 -25 4 0 16 -15 27 -32 10
-18 33 -48 51 -66 55 -55 119 -287 130 -470 7 -113 12 -127 29 -78 8 21 19 42
26 47 10 6 9 14 -1 38 -16 41 -9 203 11 228 12 14 12 15 0 9 -11 -7 -12 1 -6
45 4 30 13 70 21 89 23 60 45 181 50 280 3 52 8 102 11 110 3 8 6 33 7 56 2
22 6 46 10 53 10 16 11 245 1 301 -5 25 -9 61 -10 80 -1 19 -6 44 -10 54 -6
13 -5 17 3 12 6 -4 -7 26 -31 66 -44 77 -104 143 -153 168 -30 15 -90 60 -80
60 14 0 63 -26 84 -44 12 -11 22 -14 22 -8 0 13 -56 57 -72 57 -6 0 -18 11
-26 24 l-16 24 30 -16 c42 -22 119 -99 116 -117 -2 -11 1 -10 8 3 9 15 3 26
-36 70 -25 29 -56 59 -68 67 -33 23 -151 142 -152 154 -1 6 -2 18 -3 26 -1 10
-12 15 -33 16 -18 0 -76 19 -129 42 -91 39 -199 67 -199 52 0 -15 -125 4 -135
21 -3 4 7 7 21 6 15 -1 29 4 32 12 4 11 -4 13 -37 8 -39 -5 -41 -4 -41 21 0
32 -9 46 -31 54 -13 5 -20 -3 -29 -38 -7 -25 -18 -43 -23 -41 -15 5 -49 66
-43 76 10 16 -58 28 -91 17z m187 -76 c0 -11 -7 -20 -15 -20 -17 0 -18 2 -9
24 9 23 24 20 24 -4z m-85 -10 c3 -5 -1 -10 -9 -10 -9 0 -16 5 -16 10 0 6 4
10 9 10 6 0 13 -4 16 -10z m-55 -18 c0 -4 -9 -8 -20 -8 -11 0 -20 4 -20 8 0 4
9 8 20 8 11 0 20 -4 20 -8z m-200 -22 c0 -5 -4 -10 -10 -10 -5 0 -10 5 -10 10
0 6 5 10 10 10 6 0 10 -4 10 -10z m-300 -4 c0 -3 -4 -8 -10 -11 -5 -3 -10 -1
-10 4 0 6 5 11 10 11 6 0 10 -2 10 -4z m1290 -326 c0 -6 -9 -2 -20 7 -11 10
-20 19 -20 21 0 1 9 -2 20 -8 11 -6 20 -15 20 -20z m207 -217 c18 -24 35 -53
30 -53 -3 0 -17 16 -31 35 -15 19 -24 35 -20 35 4 0 13 -8 21 -17z m-977 -303
c0 -5 -5 -10 -11 -10 -5 0 -7 5 -4 10 3 6 8 10 11 10 2 0 4 -4 4 -10z m-420
-68 c0 -21 -2 -24 -10 -12 -13 20 -13 53 0 45 6 -3 10 -18 10 -33z m587 -124
c-3 -7 -5 -2 -5 12 0 14 2 19 5 13 2 -7 2 -19 0 -25z m410 -140 c-3 -8 -6 -5
-6 6 -1 11 2 17 5 13 3 -3 4 -12 1 -19z"/>
<path d="M3460 5580 c0 -5 15 -10 33 -10 24 0 28 3 17 10 -20 13 -50 13 -50 0z"/>
<path d="M3384 5559 c12 -8 25 -8 40 -1 18 9 16 11 -19 11 -33 0 -37 -1 -21
-10z"/>
<path d="M2029 5213 c-13 -17 -13 -17 6 -3 11 8 22 16 24 17 2 2 0 3 -6 3 -6
0 -17 -8 -24 -17z"/>
<path d="M2413 4100 c-13 -5 -23 -7 -23 -4 0 3 -12 -4 -26 -15 -15 -12 -34
-21 -43 -21 -28 0 -58 -28 -80 -74 -24 -52 -19 -80 13 -72 19 5 20 4 4 -8 -27
-20 -22 -26 14 -15 18 5 50 9 70 9 20 0 40 5 43 10 3 6 17 10 29 10 13 0 29 7
36 15 7 8 21 15 32 15 12 0 17 4 12 12 -5 8 2 9 27 4 45 -10 50 -10 78 -2 15
5 21 5 17 -2 -4 -6 2 -8 15 -5 12 3 18 11 15 20 -4 10 -1 11 13 3 11 -5 42 -9
70 -8 48 3 50 4 44 28 l-6 25 22 -25 22 -25 -4 28 c-4 24 3 32 25 28 4 0 4 7
1 16 -4 10 -8 12 -10 6 -3 -7 -11 -5 -24 8 -21 21 -75 27 -63 7 6 -10 5 -10
-7 -1 -12 10 -101 20 -241 27 -14 0 -30 4 -34 9 -9 9 -13 8 -41 -3z m-46 -176
c-3 -3 -12 -4 -19 -1 -8 3 -5 6 6 6 11 1 17 -2 13 -5z"/>
<path d="M3614 4086 c-4 -10 -14 -12 -40 -6 -39 9 -53 8 -73 -4 -7 -5 -54 -10
-105 -11 -108 -3 -143 -15 -152 -50 -7 -26 5 -50 13 -27 3 6 9 12 15 12 6 0 4
-8 -4 -17 -30 -36 -31 -44 -4 -33 14 5 33 7 42 3 9 -3 19 -1 23 6 6 9 15 9 37
0 16 -6 71 -13 122 -15 52 -2 100 -8 108 -15 7 -6 30 -11 51 -11 21 0 41 -5
45 -11 7 -11 108 -28 108 -17 0 3 -5 11 -12 18 -9 9 -9 12 -1 12 7 0 15 -4 18
-10 12 -20 20 -9 23 33 2 34 -3 48 -25 75 -16 18 -39 35 -52 37 -14 3 -27 9
-30 14 -5 8 -74 31 -94 31 -4 0 -10 -6 -13 -14z"/>
<path d="M2220 4010 c0 -5 4 -10 9 -10 6 0 13 5 16 10 3 6 -1 10 -9 10 -9 0
-16 -4 -16 -10z"/>
<path d="M4258 3833 c7 -3 16 -2 19 1 4 3 -2 6 -13 5 -11 0 -14 -3 -6 -6z"/>
<path d="M1747 3803 c-13 -12 -7 -26 6 -15 7 6 24 8 37 5 16 -4 21 -3 16 5 -8
13 -48 16 -59 5z"/>
<path d="M2415 3750 c-72 -21 -125 -47 -125 -61 0 -13 65 -40 109 -45 20 -2
28 -1 19 2 -26 8 -22 22 16 60 36 36 56 43 56 19 0 -8 14 -30 30 -49 24 -27
36 -34 57 -30 41 8 59 21 83 60 l23 36 26 -27 c25 -26 26 -26 7 -41 -19 -13
-18 -14 12 -14 18 0 32 4 32 9 0 19 -67 79 -99 90 -49 16 -176 12 -246 -9z"/>
<path d="M3400 3753 c-29 -11 -39 -18 -27 -21 9 -2 17 -9 17 -15 0 -7 12 -30
26 -51 20 -29 28 -35 35 -25 7 11 9 11 9 1 0 -7 8 -12 18 -10 9 1 23 -1 31 -6
9 -6 12 -5 8 1 -4 6 4 22 17 36 13 14 26 31 28 37 4 14 58 -10 58 -27 0 -6
-10 -19 -22 -27 -19 -14 -15 -15 57 -11 54 3 83 9 96 21 27 25 24 32 -23 53
-116 53 -254 71 -328 44z"/>
<path d="M3316 3675 c-3 -9 0 -15 9 -15 8 0 15 7 15 15 0 8 -4 15 -9 15 -5 0
-11 -7 -15 -15z"/>
<path d="M3752 3329 c2 -6 8 -10 13 -10 5 0 11 4 13 10 2 6 -4 11 -13 11 -9 0
-15 -5 -13 -11z"/>
<path d="M3127 3053 c-15 -17 -13 -18 29 -19 49 -1 58 11 18 26 -32 12 -28 13
-47 -7z"/>
<path d="M2892 3048 c-8 -10 0 -13 38 -13 38 0 46 3 38 13 -6 6 -23 12 -38 12
-15 0 -32 -6 -38 -12z"/>
<path d="M3046 2722 c18 -14 18 -14 -2 -8 -13 4 -26 1 -34 -9 -8 -10 -17 -12
-29 -6 -18 10 -160 7 -228 -4 -50 -8 -70 -27 -48 -45 36 -30 153 -42 181 -19
9 7 30 9 57 5 23 -4 76 -10 117 -13 41 -3 80 -9 87 -15 7 -6 33 -5 70 2 32 7
72 15 88 17 45 8 59 23 38 39 -10 7 -24 14 -32 14 -8 0 -34 10 -58 22 -26 13
-47 18 -51 13 -11 -16 -82 -14 -82 1 0 8 -10 14 -22 15 -13 0 -34 2 -47 3 -23
3 -23 2 -5 -12z"/>
<path d="M3675 2367 c-17 -18 -59 -57 -94 -87 -35 -30 -83 -73 -106 -96 -54
-52 -143 -111 -195 -129 -66 -23 -117 -28 -275 -26 -159 2 -246 17 -319 54
-46 23 -189 131 -225 171 -25 27 -41 33 -41 16 0 -5 43 -52 95 -105 93 -92
142 -126 237 -161 52 -19 361 -34 453 -22 64 9 135 42 199 92 54 42 204 191
246 244 19 24 41 50 49 58 7 8 12 17 9 19 -2 2 -17 -10 -33 -28z"/>
<path d="M3770 2231 c0 -22 5 -43 10 -46 6 -3 10 -14 9 -23 0 -14 -2 -13 -9 3
-7 19 -8 18 -15 -6 -6 -26 -10 -258 -5 -356 2 -39 6 -50 16 -46 8 3 14 16 14
29 0 26 19 74 30 74 4 0 6 37 5 83 -2 56 0 74 6 57 8 -23 8 -22 4 5 -2 17 -6
64 -9 106 -6 105 -56 212 -56 120z"/>
<path d="M2270 2080 c0 -58 73 -307 108 -368 17 -30 28 -21 11 9 -13 26 -29
80 -34 119 -2 14 -12 52 -23 85 -11 33 -26 85 -33 115 -16 67 -29 86 -29 40z"/>
<path d="M2450 1606 c0 -4 7 -14 15 -22 8 -9 15 -11 15 -6 0 5 -7 15 -15 22
-8 7 -15 9 -15 6z"/>
<path d="M2374 1301 c-48 -35 -202 -196 -173 -180 12 6 48 37 81 70 33 33 64
56 70 53 7 -5 8 -2 3 6 -8 13 10 30 32 30 7 0 24 -27 39 -60 15 -33 30 -60 35
-60 14 0 21 21 11 33 -16 19 -42 88 -31 82 5 -4 21 -29 35 -56 29 -58 142
-174 170 -176 10 0 39 -2 64 -3 25 -2 77 -13 115 -26 77 -26 87 -28 65 -14
-23 15 -144 50 -173 50 -83 0 -185 84 -242 199 -22 44 -45 81 -51 81 -6 0 -29
-13 -50 -29z"/>
<path d="M3750 1210 c0 -5 9 -10 20 -10 12 0 42 -11 68 -23 47 -24 98 -40 226
-72 38 -10 91 -33 120 -52 47 -32 49 -33 26 -8 -31 34 -105 68 -185 86 -33 7
-102 30 -152 51 -96 39 -123 45 -123 28z"/>
<path d="M3698 1121 c-14 -15 -46 -33 -70 -41 -24 -7 -47 -18 -53 -23 -7 -7
-6 -8 2 -3 7 4 28 7 48 8 26 1 45 11 70 35 19 19 35 38 35 43 0 13 0 13 -32
-19z"/>
<path d="M3481 1023 c-19 -8 -64 -19 -100 -23 -80 -11 -154 -27 -126 -29 95
-4 305 37 305 60 0 13 -40 10 -79 -8z"/>
<path d="M3110 1007 c-47 -11 -87 -21 -88 -22 -2 -2 11 -25 28 -50 18 -26 35
-43 39 -38 4 4 31 34 61 66 29 31 51 59 49 60 -2 2 -42 -5 -89 -16z"/>
</g>
</svg>
